<?xml version="1.0" encoding="UTF-8"?>
<svg id="Layer_1" data-name="Layer 1" xmlns="http://www.w3.org/2000/svg" viewBox="0 0 2834.65 2834.65">
  <defs>
    <style>
      .cls-1 {
        fill: #04b08b;
      }
    </style>
  </defs>
  <path class="cls-1" d="M2774.13,2057.18L1427.52,739.67c-3.88-3.66-9.92-3.66-13.68.1L59.45,2097.71l990.58-442.47c12.28-5.5,26.41-4.42,37.51,2.91l223.33,145.51c2.05,1.4,4.86,1.3,6.78-.33l102.19-80.63,104.01,76.1c2.81,1.94,6.47,2.05,9.38.21l241.23-155.43,995.87,419.2c3.56,1.51,6.47-2.91,3.78-5.6h0ZM1631.24,1192.6l106.92,299.65-343.53-387.28L258,1961.03,1422.56,845.83l1178.36,1094.18-969.67-747.41h-.02Z"/>
</svg>